<?xml version="1.0" encoding="utf-8" standalone="no"?>
<!DOCTYPE svg PUBLIC "-//W3C//DTD SVG 1.1//EN"
  "http://www.w3.org/Graphics/SVG/1.1/DTD/svg11.dtd">
<!-- Created with matplotlib (http://matplotlib.org/) -->
<svg height="266pt" version="1.1" viewBox="0 0 612 266" width="612pt" xmlns="http://www.w3.org/2000/svg" xmlns:xlink="http://www.w3.org/1999/xlink">
 <defs>
  <style type="text/css">
*{stroke-linecap:butt;stroke-linejoin:round;}
  </style>
 </defs>
 <g id="figure_1">
  <g id="patch_1">
   <path d="
M0 266.221
L612.207 266.221
L612.207 0
L0 0
z
" style="fill:#ffffff;"/>
  </g>
  <g id="axes_1">
   <g id="line2d_1">
    <path clip-path="url(#peff9737f71)" d="
M38.2713 128.207
L596.271 128.207" style="fill:none;stroke:#000000;stroke-linecap:square;"/>
   </g>
   <g id="PathCollection_1">
    <defs>
     <path d="
M0 8.66025
C2.29673 8.66025 4.49969 7.74776 6.12372 6.12372
C7.74776 4.49969 8.66025 2.29673 8.66025 0
C8.66025 -2.29673 7.74776 -4.49969 6.12372 -6.12372
C4.49969 -7.74776 2.29673 -8.66025 0 -8.66025
C-2.29673 -8.66025 -4.49969 -7.74776 -6.12372 -6.12372
C-7.74776 -4.49969 -8.66025 -2.29673 -8.66025 0
C-8.66025 2.29673 -7.74776 4.49969 -6.12372 6.12372
C-4.49969 7.74776 -2.29673 8.66025 0 8.66025
z
" id="m5ae821e6a6" style="stroke:#808080;stroke-opacity:0.5;"/>
    </defs>
    <g clip-path="url(#peff9737f71)">
     <use style="fill:#808080;fill-opacity:0.5;stroke:#808080;stroke-opacity:0.5;" x="78.1283928571" xlink:href="#m5ae821e6a6" y="128.206875"/>
     <use style="fill:#808080;fill-opacity:0.5;stroke:#808080;stroke-opacity:0.5;" x="177.77125" xlink:href="#m5ae821e6a6" y="128.206875"/>
     <use style="fill:#808080;fill-opacity:0.5;stroke:#808080;stroke-opacity:0.5;" x="277.414107143" xlink:href="#m5ae821e6a6" y="128.206875"/>
     <use style="fill:#808080;fill-opacity:0.5;stroke:#808080;stroke-opacity:0.5;" x="377.056964286" xlink:href="#m5ae821e6a6" y="128.206875"/>
     <use style="fill:#808080;fill-opacity:0.5;stroke:#808080;stroke-opacity:0.5;" x="476.699821429" xlink:href="#m5ae821e6a6" y="128.206875"/>
     <use style="fill:#808080;fill-opacity:0.5;stroke:#808080;stroke-opacity:0.5;" x="576.342678571" xlink:href="#m5ae821e6a6" y="128.206875"/>
    </g>
   </g>
   <g id="line2d_2">
    <path clip-path="url(#peff9737f71)" d="
M38.2713 163.806
L51.2912 152.394
L68.0312 137.366
L107.091 102.136
L120.111 90.7775
L131.271 81.3508
L140.571 73.769
L149.871 66.4796
L159.171 59.5218
L166.611 54.2194
L174.051 49.1713
L181.491 44.395
L188.931 39.9069
L196.371 35.7223
L203.811 31.8557
L209.391 29.1724
L214.971 26.6807
L220.551 24.3854
L226.131 22.2908
L231.711 20.4011
L237.291 18.72
L242.871 17.2505
L248.451 15.9957
L254.031 14.958
L259.611 14.1392
L265.191 13.5411
L270.771 13.1648
L276.351 13.0109
L281.931 13.0799
L287.511 13.3715
L293.091 13.8853
L298.671 14.6201
L304.251 15.5747
L309.831 16.7471
L315.411 18.1351
L320.991 19.7359
L326.571 21.5466
L332.151 23.5635
L337.731 25.7829
L343.311 28.2004
L348.891 30.8112
L356.331 34.5845
L363.771 38.6797
L371.211 43.0826
L378.651 47.7782
L386.091 52.7503
L393.531 57.9819
L400.971 63.4549
L410.271 70.6069
L419.571 78.0683
L428.871 85.7989
L440.031 95.3727
L453.051 106.858
L471.651 123.624
L501.411 150.504
L514.431 161.965
L525.591 171.511
L534.891 179.213
L544.191 186.641
L553.491 193.755
L560.931 199.194
L568.371 204.39
L575.811 209.324
L583.251 213.978
L590.691 218.338
L596.271 221.406
L596.271 221.406" style="fill:none;stroke:#000000;stroke-dasharray:6.000000,6.000000;stroke-dashoffset:0.0;"/>
   </g>
   <g id="line2d_3">
    <path clip-path="url(#peff9737f71)" d="
M38.2713 97.6827
L40.1313 96.8003
L41.9912 97.3015
L43.8512 99.4135
L45.7113 103.135
L47.5712 108.238
L49.4313 114.302
L53.1513 127.076
L55.0113 132.641
L56.8712 137.045
L58.7312 140.029
L60.5912 141.527
L62.4512 141.658
L64.3113 140.681
L66.1712 138.945
L71.7512 132.629
L73.6112 130.96
L75.4713 129.644
L79.1912 127.688
L81.0512 126.715
L82.9112 125.516
L84.7712 123.985
L86.6312 122.109
L90.3512 117.855
L92.2112 116.016
L94.0712 114.847
L95.9313 114.718
L97.7912 115.927
L99.6512 118.642
L101.511 122.853
L103.371 128.35
L107.091 141.485
L108.951 147.987
L110.811 153.662
L112.671 158.032
L114.531 160.789
L116.391 161.844
L118.251 161.337
L120.111 159.622
L123.831 154.732
L125.691 152.8
L127.551 151.973
L129.411 152.651
L131.271 155.009
L133.131 158.955
L134.991 164.112
L138.711 175.295
L140.571 179.51
L142.431 181.526
L144.291 180.514
L146.151 175.91
L148.011 167.519
L149.871 155.583
L151.731 140.776
L157.311 90.7226
L159.171 76.6058
L161.031 65.6823
L162.891 58.5942
L164.751 55.5218
L166.611 56.1759
L168.471 59.8481
L170.331 65.5115
L172.191 71.9548
L174.051 77.9346
L175.911 82.3288
L177.771 84.276
L179.631 83.2877
L181.491 79.3218
L183.351 72.8084
L188.931 48.4207
L190.791 43.4095
L192.651 42.3669
L194.511 46.3588
L196.371 55.9478
L198.231 71.0766
L200.091 91.0311
L201.951 114.496
L205.671 164.643
L207.531 187.339
L209.391 206.083
L211.251 219.655
L213.111 227.456
L214.971 229.559
L216.831 226.666
L218.691 219.996
L224.271 193.453
L226.131 187.709
L227.991 185.443
L229.851 187.08
L231.711 192.446
L233.571 200.779
L237.291 220.824
L239.151 229.007
L241.011 233.511
L242.871 232.776
L244.731 225.737
L246.591 212.002
L248.451 191.951
L250.311 166.725
L255.891 79.7957
L257.751 54.6824
L259.611 34.7967
L261.471 21.2859
L263.331 14.5419
L265.191 14.1935
L267.051 19.1949
L268.911 27.9903
L272.631 49.4888
L274.491 58.5249
L276.351 64.449
L278.211 66.3956
L280.071 64.1158
L281.931 58.0082
L283.791 49.0783
L287.511 29.0966
L289.371 21.8232
L291.231 18.8245
L293.091 21.5416
L294.951 30.8291
L296.811 46.808
L298.671 68.8083
L300.531 95.4215
L306.111 181.719
L307.971 205.108
L309.831 222.818
L311.691 233.982
L313.551 238.496
L315.411 236.979
L317.271 230.653
L319.131 221.159
L322.851 199.973
L324.711 191.653
L326.571 186.526
L328.431 185.216
L330.291 187.754
L332.151 193.585
L334.011 201.63
L335.871 210.419
L337.731 218.262
L339.591 223.454
L341.451 224.499
L343.311 220.309
L345.171 210.372
L347.031 194.843
L348.891 174.555
L350.751 150.929
L354.471 101.19
L356.331 79.0245
L358.191 60.9115
L360.051 47.9434
L361.911 40.5922
L363.771 38.6942
L365.631 41.5172
L367.491 47.8932
L369.351 56.3915
L371.211 65.5071
L373.071 73.8405
L374.931 80.2538
L376.791 83.9859
L378.651 84.7221
L380.511 82.6124
L382.371 78.238
L386.091 66.6608
L387.951 61.8769
L389.811 59.3599
L391.671 60.0607
L393.531 64.5695
L395.391 73.0262
L397.251 85.0877
L399.111 99.9621
L404.691 149.225
L406.551 162.826
L408.411 173.281
L410.271 180.085
L412.131 183.162
L413.991 182.84
L415.851 179.77
L417.711 174.817
L421.431 163.031
L423.291 157.892
L425.151 154.077
L427.011 151.881
L428.871 151.329
L430.731 152.189
L432.591 154.025
L434.451 156.263
L436.311 158.28
L438.171 159.487
L440.031 159.414
L441.891 157.772
L443.751 154.497
L445.611 149.753
L447.471 143.912
L451.191 131.085
L453.051 125.26
L454.911 120.489
L456.771 117.085
L458.631 115.167
L460.491 114.667
L462.351 115.36
L464.211 116.917
L467.931 121.171
L469.791 123.243
L471.651 125.014
L473.511 126.427
L475.371 127.533
L479.091 129.404
L480.951 130.524
L482.811 131.954
L484.671 133.737
L490.251 139.924
L492.111 141.323
L493.971 141.785
L495.831 140.982
L497.691 138.704
L499.551 134.908
L501.411 129.745
L503.271 123.562
L506.991 110.225
L508.851 104.258
L510.711 99.4755
L512.571 96.2387
L514.431 94.7019
L516.291 94.7896
L518.151 96.2062
L520.011 98.4749
L521.871 101.001
L523.731 103.152
L525.591 104.344
L527.451 104.125
L529.311 102.25
L531.171 98.7318
L533.031 93.8664
L536.751 82.5943
L538.611 77.924
L540.471 75.1868
L542.331 75.2625
L544.191 78.8029
L546.051 86.1163
L547.911 97.0901
L549.771 111.17
L553.491 144.542
L555.351 161.208
L557.211 176.062
L559.071 187.982
L560.931 196.205
L562.791 200.416
L564.651 200.771
L566.511 197.868
L568.371 192.655
L572.091 180.071
L573.951 175.122
L575.811 172.408
L577.671 172.533
L579.531 175.671
L581.391 181.528
L583.251 189.348
L585.111 197.987
L586.971 206.023
L588.831 211.921
L590.691 214.224
L592.551 211.753
L594.411 203.786
L596.271 190.195
L596.271 190.195" style="fill:none;stroke:#000000;stroke-linecap:square;stroke-width:2;"/>
   </g>
  </g>
 </g>
 <defs>
  <clipPath id="peff9737f71">
   <rect height="230.4" width="558.0" x="38.27125" y="13.006875"/>
  </clipPath>
 </defs>
</svg>
